<?xml version="1.0" standalone="no"?>
<!DOCTYPE svg PUBLIC "-//W3C//DTD SVG 20010904//EN"
 "http://www.w3.org/TR/2001/REC-SVG-20010904/DTD/svg10.dtd">
<svg version="1.0" xmlns="http://www.w3.org/2000/svg"
 width="515.000000pt" height="87.000000pt" viewBox="0 0 515.000000 87.000000"
 preserveAspectRatio="xMidYMid meet">

<g transform="translate(0.000000,87.000000) scale(0.100000,-0.100000)"
fill="#000000" stroke="none">
<path d="M76 818 c-15 -13 -29 -37 -32 -55 -5 -27 -1 -37 23 -62 33 -33 33
-32 -27 -139 -21 -38 -22 -44 -9 -58 14 -13 14 -23 1 -82 -25 -121 2 -242 69
-312 21 -22 39 -48 39 -58 0 -40 14 -42 300 -42 290 0 300 1 300 45 0 12 13
31 29 43 16 12 42 47 58 79 25 53 28 67 27 158 0 55 -6 113 -12 128 -10 23 -9
29 3 33 22 9 19 22 -23 102 l-39 74 29 28 c35 35 36 69 2 109 l-26 31 -343 0
c-342 0 -344 0 -369 -22z m708 -34 c20 -20 20 -38 0 -58 -13 -14 -59 -16 -344
-16 -285 0 -331 2 -344 16 -20 19 -20 24 0 52 15 22 16 22 344 22 285 0 331
-2 344 -16z m-11 -181 c32 -64 29 -70 -39 -71 -24 -1 -52 -5 -61 -10 -16 -9
-148 -14 -322 -13 -35 0 -68 4 -74 10 -6 6 -38 8 -81 5 -39 -3 -83 -1 -97 3
l-26 8 34 63 35 62 301 0 302 0 28 -57z m-16 -137 l41 6 12 -58 c24 -112 -7
-234 -72 -289 l-30 -25 -267 0 c-257 0 -269 1 -295 21 -63 50 -95 168 -76 279
l11 65 82 -2 c45 -1 82 -2 82 -3 0 -5 107 -14 155 -13 148 3 270 12 287 21 11
7 20 7 24 1 3 -6 23 -7 46 -3z"/>
<path d="M4918 728 c-103 -62 -187 -115 -187 -118 0 -3 7 -15 17 -26 17 -21
17 -21 202 92 102 63 186 118 188 124 4 11 -16 40 -27 40 -3 0 -90 -51 -193
-112z"/>
<path d="M980 430 l0 -402 198 4 c208 4 233 9 295 58 56 44 87 145 68 218 -11
37 -77 112 -100 112 -6 0 -22 5 -38 11 l-28 10 33 16 c155 75 148 279 -13 350
-32 14 -76 18 -227 21 l-188 4 0 -402z m362 297 c49 -21 72 -65 66 -129 -9
-93 -72 -128 -232 -128 l-86 0 0 141 0 142 108 -5 c63 -3 122 -12 144 -21z
m25 -354 c93 -44 97 -178 8 -233 -32 -20 -54 -24 -161 -28 l-124 -5 0 142 0
141 121 0 c92 0 129 -4 156 -17z"/>
<path d="M4006 763 c-2 -10 -8 -47 -11 -83 -10 -89 -17 -100 -66 -100 -39 0
-40 -1 -37 -32 3 -31 6 -33 46 -36 l42 -3 0 -198 c0 -190 1 -199 23 -232 29
-43 60 -59 117 -59 48 0 130 32 130 50 0 6 -7 22 -16 35 -15 23 -18 24 -44 10
-41 -21 -76 -19 -94 7 -13 18 -16 56 -16 205 l0 183 80 0 80 0 0 40 0 40 -80
0 -80 0 0 95 0 95 -34 0 c-24 0 -36 -5 -40 -17z"/>
<path d="M4633 663 c-24 -9 -13 -44 39 -129 45 -74 55 -85 77 -82 15 2 27 10
29 20 4 21 -105 198 -121 197 -7 0 -18 -3 -24 -6z"/>
<path d="M4533 624 c-7 -20 3 -42 72 -153 57 -92 79 -108 105 -76 13 16 2 39
-87 178 -43 68 -76 87 -90 51z"/>
<path d="M4447 614 c-17 -18 -1 -57 71 -174 65 -105 82 -125 102 -125 43 0 34
35 -48 170 -74 124 -102 152 -125 129z"/>
<path d="M1869 599 c-86 -13 -156 -67 -193 -149 -24 -54 -28 -181 -8 -247 18
-61 70 -123 126 -152 94 -48 247 -35 318 27 28 26 29 30 17 50 -17 28 -25 28
-91 -3 -123 -57 -239 -16 -273 99 -28 92 -41 85 183 88 l197 3 -1 66 c-1 149
-118 241 -275 218z m120 -87 c38 -19 71 -72 71 -114 l0 -28 -151 0 -152 0 6
37 c12 72 75 123 152 123 22 0 55 -8 74 -18z"/>
<path d="M2457 599 c-139 -21 -228 -150 -215 -313 17 -201 176 -308 375 -250
30 9 69 29 86 44 l32 29 -22 22 -22 22 -59 -26 c-99 -45 -190 -33 -245 32 -26
32 -47 87 -47 128 0 22 1 23 198 25 l197 3 3 29 c10 84 -33 178 -101 224 -42
28 -115 40 -180 31z m119 -85 c38 -18 74 -76 74 -119 l0 -25 -150 0 -150 0 0
29 c0 94 130 160 226 115z"/>
<path d="M3048 599 c-69 -11 -128 -47 -165 -103 -43 -63 -56 -116 -51 -201 11
-160 98 -260 240 -273 75 -6 174 20 219 58 34 28 34 28 15 49 -24 27 -30 26
-90 -4 -56 -28 -128 -33 -179 -11 -59 24 -107 102 -107 173 0 22 1 23 198 25
l197 3 3 30 c6 46 -16 128 -43 165 -52 70 -140 103 -237 89z m138 -100 c29
-26 54 -77 54 -109 0 -19 -6 -20 -149 -20 -83 0 -152 3 -154 8 -8 11 19 81 40
104 47 54 160 63 209 17z"/>
<path d="M3515 577 c-54 -31 -85 -79 -85 -134 0 -82 38 -122 150 -158 30 -10
72 -26 92 -36 91 -46 43 -159 -68 -159 -24 0 -61 10 -90 25 -62 32 -70 31 -88
-4 l-15 -28 51 -28 c91 -50 221 -44 288 11 42 36 62 79 62 134 0 80 -38 115
-176 160 -110 36 -140 81 -93 136 34 39 105 44 176 13 52 -22 54 -22 67 -4 23
32 16 45 -38 70 -72 34 -176 35 -233 2z"/>
<path d="M4380 535 c-6 -8 -10 -18 -8 -22 26 -52 136 -224 147 -228 17 -7 41
12 41 33 0 8 -30 64 -66 123 -67 110 -87 126 -114 94z"/>
<path d="M4313 463 c-7 -17 10 -51 74 -151 26 -42 38 -53 56 -50 13 2 23 11
25 24 3 19 -59 132 -96 177 -19 22 -51 22 -59 0z"/>
<path d="M4562 227 c-26 -28 -52 -88 -52 -122 0 -33 42 -75 75 -75 36 0 75 42
75 80 0 35 -29 97 -57 122 -19 17 -20 17 -41 -5z m23 -157 c13 0 31 8 41 17
13 13 16 14 12 3 -2 -8 -16 -21 -30 -29 -23 -13 -29 -13 -52 2 -14 10 -26 22
-26 28 0 6 7 3 16 -5 8 -9 26 -16 39 -16z"/>
</g>
</svg>
