<?xml version="1.0" standalone="no"?>
<!DOCTYPE svg PUBLIC "-//W3C//DTD SVG 20010904//EN"
 "http://www.w3.org/TR/2001/REC-SVG-20010904/DTD/svg10.dtd">
<svg version="1.0" xmlns="http://www.w3.org/2000/svg"
 width="821.000000pt" height="255.000000pt" viewBox="0 0 821.000000 255.000000"
 preserveAspectRatio="xMidYMid meet">

<g transform="translate(0.000000,255.000000) scale(0.100000,-0.100000)"
fill="#000000" stroke="none">
<path d="M0 1275 l0 -1275 4105 0 4105 0 0 1275 0 1275 -4105 0 -4105 0 0
-1275z m6740 1075 c0 -100 -2 -120 -15 -120 -12 0 -15 20 -15 120 0 100 3 120
15 120 13 0 15 -20 15 -120z m420 94 c0 -16 -16 -19 -25 -4 -8 13 4 32 16 25
5 -4 9 -13 9 -21z m-500 6 c23 -14 3 -24 -43 -22 -23 1 -47 -1 -53 -5 -37 -26
-45 -107 -15 -144 15 -19 28 -24 65 -23 32 1 46 -3 46 -13 0 -9 -15 -13 -49
-13 -73 0 -103 28 -109 103 -4 54 -3 58 31 92 28 28 43 35 74 35 21 0 45 -4
53 -10z m1040 -30 c0 -15 7 -20 25 -20 14 0 25 -4 25 -10 0 -5 -11 -10 -25
-10 -25 0 -26 -1 -23 -62 3 -57 5 -63 26 -66 33 -5 27 -22 -8 -22 -38 0 -50
23 -50 94 0 34 -5 56 -12 60 -9 3 -8 8 5 16 9 6 17 18 17 25 0 8 5 15 10 15 6
0 10 -9 10 -20z m-6778 -22 c-15 -15 -26 -4 -18 18 5 13 9 15 18 6 9 -9 9 -15
0 -24z m-698 12 c69 -26 74 -174 7 -210 -35 -18 -98 -12 -127 13 -52 45 -40
173 19 197 30 12 70 12 101 0z m6695 -37 c19 -21 22 -34 18 -66 -7 -53 -31
-77 -78 -77 -47 0 -79 36 -79 89 0 84 83 116 139 54z m159 27 c8 0 12 -5 10
-12 -2 -6 -22 -12 -44 -12 -52 -1 -52 -23 1 -50 29 -15 41 -28 43 -47 4 -35
-19 -51 -69 -47 -60 4 -61 24 -2 24 63 -1 64 19 3 54 -34 20 -45 32 -45 50 0
28 39 53 70 45 11 -2 26 -5 33 -5z m269 -12 c20 -16 18 -158 -2 -158 -11 0
-15 17 -17 73 l-3 72 -33 3 c-27 3 -34 -1 -42 -23 -6 -14 -10 -49 -10 -76 0
-37 -4 -49 -15 -49 -12 0 -15 16 -15 85 0 69 3 85 15 85 8 0 15 -5 15 -11 0
-5 10 -3 23 6 23 16 60 13 84 -7z m188 12 c25 -1 28 -3 15 -13 -8 -7 -16 -25
-17 -41 -1 -35 -12 -46 -54 -55 -47 -9 -50 -31 -4 -31 52 0 75 -15 75 -49 0
-36 -18 -51 -69 -58 -70 -9 -120 44 -73 79 19 15 20 49 3 91 -19 47 23 93 74
82 11 -3 34 -5 50 -5z m363 -17 c7 -10 12 -46 12 -85 0 -63 -9 -84 -26 -57 -4
8 -9 8 -17 0 -15 -15 -70 -14 -85 1 -35 35 2 88 60 88 35 0 39 2 36 23 -2 18
-10 22 -38 23 -39 1 -51 14 -23 26 25 10 65 0 81 -19z m202 9 c3 -3 -1 -7 -7
-9 -7 -3 -13 -18 -13 -33 0 -33 -31 -60 -67 -60 -14 0 -23 -6 -23 -15 0 -11
11 -15 39 -15 76 0 98 -65 34 -99 -68 -35 -162 25 -108 69 9 7 13 21 10 31 -3
9 -1 20 5 24 7 4 5 14 -5 28 -22 31 -19 53 11 76 21 17 35 19 72 14 26 -3 49
-8 52 -11z m-6630 -12 c0 -13 7 -20 20 -20 11 0 20 -4 20 -10 0 -5 -9 -10 -20
-10 -18 0 -20 -7 -20 -65 0 -63 1 -65 25 -65 14 0 25 -4 25 -10 0 -14 -54 -12
-68 2 -7 7 -12 39 -12 74 0 38 -4 64 -12 66 -7 3 -5 13 7 31 21 32 35 35 35 7z
m5690 -65 c0 -69 -3 -85 -15 -85 -12 0 -15 16 -15 85 0 69 3 85 15 85 12 0 15
-16 15 -85z m-6696 22 c24 -28 18 -114 -10 -134 -21 -15 -76 -17 -89 -3 -7 6
-10 -8 -10 -37 0 -28 -5 -48 -12 -50 -10 -4 -13 25 -13 121 0 77 4 126 10 126
6 0 10 -4 10 -9 0 -6 12 -3 28 4 32 17 60 11 86 -18z m179 1 c9 -11 17 -31 17
-44 0 -23 -3 -24 -60 -24 -64 0 -72 -8 -40 -40 17 -17 28 -19 57 -14 28 5 35
4 31 -7 -3 -8 -22 -15 -45 -17 -53 -4 -83 20 -90 75 -5 37 -2 45 26 74 25 25
37 30 59 25 15 -4 35 -16 45 -28z m195 5 c7 -10 12 -46 12 -85 0 -54 -3 -68
-15 -68 -12 0 -15 13 -15 59 0 78 -6 91 -41 91 -37 0 -49 -24 -49 -94 0 -43
-3 -56 -15 -56 -12 0 -15 16 -15 85 0 69 3 85 15 85 8 0 15 -5 15 -11 0 -5 10
-3 23 6 25 18 66 12 85 -12z m267 2 c22 -21 25 -33 25 -90 0 -51 -3 -65 -15
-65 -12 0 -15 14 -15 63 0 67 -10 87 -45 87 -35 0 -45 -20 -45 -87 0 -49 -3
-63 -15 -63 -12 0 -15 16 -15 86 0 72 2 85 15 80 8 -3 25 -1 37 4 36 14 47 12
73 -15z m190 15 c25 -1 28 -3 15 -13 -8 -7 -14 -24 -12 -39 4 -30 -28 -58 -65
-58 -14 0 -23 -6 -23 -15 0 -11 11 -15 37 -15 68 0 95 -51 47 -89 -47 -37
-134 -22 -134 23 0 13 6 29 14 36 8 6 12 18 9 26 -3 8 0 20 6 28 8 10 8 16 -4
26 -42 35 4 107 60 95 11 -3 34 -5 50 -5z m353 -6 c19 -13 22 -24 22 -90 0
-43 -4 -74 -10 -74 -5 0 -10 5 -10 12 0 9 -3 9 -12 0 -21 -21 -75 -15 -92 10
-20 29 -20 34 4 58 12 12 33 20 55 20 31 0 35 3 35 26 0 24 -3 26 -40 22 -43
-4 -58 17 -17 25 39 8 42 7 65 -9z m197 6 c25 -1 28 -3 15 -13 -8 -7 -14 -21
-12 -32 4 -29 -19 -56 -56 -63 -46 -10 -41 -26 9 -33 24 -3 48 -14 55 -24 18
-24 18 -28 -4 -55 -27 -33 -103 -39 -131 -11 -26 26 -26 36 -3 59 17 18 21 64
8 94 -20 44 22 95 69 83 11 -2 34 -5 50 -5z m-915 -85 c0 -69 -3 -85 -15 -85
-12 0 -15 16 -15 85 0 69 3 85 15 85 12 0 15 -16 15 -85z m6458 -318 l2 -187
234 0 c188 0 236 -3 245 -14 8 -9 11 -46 9 -103 -3 -80 -5 -88 -23 -88 -18 0
-20 8 -23 78 l-3 77 -469 0 -469 0 -3 -77 c-3 -70 -5 -78 -23 -78 -19 0 -20 7
-20 100 l0 100 248 3 247 2 0 184 c0 100 3 186 7 190 4 4 14 5 23 4 13 -3 15
-31 18 -191z m-6510 -4 l2 -173 173 -2 172 -3 0 -95 c0 -88 -1 -95 -20 -95
-18 0 -20 8 -23 73 l-3 72 -334 0 -334 0 -3 -72 c-3 -65 -5 -73 -23 -73 -19 0
-20 7 -20 95 l0 95 183 3 182 2 0 169 c0 92 3 171 7 175 4 4 14 5 23 4 13 -3
15 -29 18 -175z m2392 -353 c0 -23 -4 -30 -20 -30 -16 0 -20 7 -20 30 0 23 4
30 20 30 16 0 20 -7 20 -30z m-1930 -47 c13 -38 26 -71 29 -76 4 -4 18 26 31
68 23 74 24 75 57 75 l33 0 0 -165 0 -165 -25 0 -25 0 -1 123 -1 122 -22 -65
c-17 -49 -28 -66 -43 -68 -18 -3 -25 8 -44 65 l-24 68 -3 -122 -3 -123 -24 0
-25 0 0 158 c0 87 3 162 7 165 3 4 19 7 34 7 25 0 29 -6 49 -67z m1368 20 c3
-30 6 -32 45 -35 30 -2 43 -8 45 -20 3 -15 -4 -18 -43 -18 l-46 0 3 -82 3 -83
40 -5 c27 -3 41 -10 43 -22 3 -15 -4 -18 -47 -18 -77 0 -91 19 -91 125 l0 85
-30 0 c-23 0 -30 4 -30 20 0 16 7 20 30 20 28 0 30 3 30 36 0 31 3 35 23 32
17 -2 23 -11 25 -35z m4600 28 c-1 -4 -39 -85 -83 -180 -68 -147 -82 -171
-102 -171 l-22 0 23 53 c13 28 51 109 84 180 50 105 64 127 82 127 12 0 20 -4
18 -9z m-6610 -83 c-2 -17 -21 -28 -85 -52 -46 -17 -83 -33 -83 -36 0 -3 38
-19 85 -35 73 -25 85 -33 85 -52 l0 -23 -52 21 c-29 12 -80 31 -113 43 -50 19
-60 27 -60 46 0 20 14 29 105 66 58 23 109 42 113 43 5 1 7 -9 5 -21z m227 -2
c44 -44 46 -157 4 -202 -17 -18 -33 -24 -64 -24 -22 0 -46 5 -53 12 -9 9 -12
-1 -12 -45 0 -50 -2 -57 -20 -57 -19 0 -20 7 -20 166 l0 167 30 -6 c16 -4 32
-2 35 3 12 20 75 11 100 -14z m240 -40 c44 -17 61 -29 63 -44 3 -17 -10 -25
-80 -52 -46 -18 -98 -38 -115 -45 -32 -13 -33 -13 -33 8 0 19 12 27 81 52 44
16 82 32 84 35 2 4 -34 19 -81 35 -72 26 -84 33 -84 52 l0 23 53 -21 c28 -12
79 -31 112 -43z m447 -28 l34 -91 33 91 c29 81 36 92 57 92 13 0 24 -3 24 -8
0 -19 -113 -299 -127 -314 -9 -11 -30 -18 -50 -18 -26 0 -33 4 -33 20 0 13 7
20 20 20 11 0 27 12 36 26 17 24 16 29 -29 142 -26 65 -47 121 -47 125 0 4 11
7 24 7 20 0 28 -12 58 -92z m642 86 c9 -3 16 -17 16 -31 0 -20 -3 -24 -17 -18
-47 21 -80 17 -102 -10 -26 -35 -28 -94 -3 -125 21 -25 65 -30 102 -10 20 11
21 9 18 -16 -4 -38 -51 -52 -109 -35 -53 16 -79 58 -79 130 0 47 4 57 34 87
29 29 41 34 79 34 25 0 52 -3 61 -6z m261 -19 c23 -22 25 -31 25 -125 l0 -100
-37 0 c-21 1 -54 -2 -73 -5 -53 -10 -90 23 -90 79 0 57 24 78 95 84 57 5 69
18 40 42 -15 12 -71 10 -107 -5 -14 -6 -18 -2 -18 18 0 29 12 34 88 36 44 1
57 -3 77 -24z m755 -80 l0 -105 40 0 c33 0 40 -3 40 -20 0 -19 -7 -20 -100
-20 -93 0 -100 1 -100 20 0 17 7 20 40 20 l41 0 -3 83 -3 82 -32 3 c-31 3 -42
19 -26 35 3 4 28 7 55 7 l48 0 0 -105z m308 72 c3 -26 2 -27 -17 -18 -48 26
-120 0 -92 -33 7 -8 30 -17 52 -21 71 -12 97 -77 52 -127 -37 -41 -155 -32
-161 11 -4 25 4 26 74 6 13 -4 29 1 45 14 23 21 24 21 5 36 -11 8 -33 17 -50
21 -44 8 -65 26 -72 62 -5 25 -1 36 20 57 23 23 33 26 84 23 54 -3 57 -4 60
-31z m422 -64 l34 -97 31 94 c29 87 34 95 59 98 23 3 27 0 22 -15 -4 -10 -23
-65 -44 -123 -35 -101 -38 -105 -68 -108 l-31 -3 -41 118 c-23 65 -42 121 -42
126 0 4 11 7 23 7 21 0 28 -12 57 -97z m374 66 c14 -17 27 -39 28 -50 0 -10 1
-25 2 -31 1 -9 -25 -14 -85 -18 l-85 -5 8 -32 c12 -44 77 -60 131 -32 13 7 19
6 24 -6 11 -30 -22 -49 -86 -50 -49 0 -64 4 -85 24 -56 52 -58 150 -6 203 24
23 37 28 78 28 44 0 54 -4 76 -31z m176 14 c0 -15 2 -15 19 1 13 12 32 16 62
14 39 -3 44 -6 47 -30 3 -26 2 -26 -27 -15 -38 14 -77 -2 -91 -39 -6 -14 -10
-57 -10 -95 0 -67 -1 -69 -25 -69 l-25 0 0 118 c0 65 3 122 7 125 13 14 43 7
43 -10z m242 -75 l34 -91 33 91 c29 81 36 92 57 92 13 0 24 -3 24 -8 0 -19
-113 -299 -127 -314 -9 -11 -30 -18 -50 -18 -26 0 -33 4 -33 20 0 13 7 20 20
20 11 0 27 12 36 26 17 24 16 29 -29 142 -26 65 -47 121 -47 125 0 4 11 7 24
7 20 0 28 -12 58 -92z m596 80 c9 -9 12 -9 12 0 0 7 11 12 25 12 l25 0 0 -139
c0 -126 -2 -141 -21 -165 -29 -36 -63 -48 -116 -40 -38 5 -43 9 -43 31 0 21 3
24 23 19 12 -3 32 -9 44 -12 26 -7 63 26 63 58 0 17 -3 19 -12 10 -22 -22 -87
-15 -112 13 -43 46 -43 154 0 200 25 28 90 35 112 13z m222 -5 c0 -15 2 -15
19 1 13 12 32 16 62 14 39 -3 44 -6 47 -30 3 -26 2 -26 -27 -15 -38 14 -77 -2
-91 -39 -6 -14 -10 -57 -10 -95 0 -67 -1 -69 -25 -69 l-25 0 0 118 c0 65 3
122 7 125 13 14 43 7 43 -10z m228 -83 c3 -100 14 -125 50 -113 34 12 42 36
42 125 0 87 0 88 25 88 l25 0 0 -125 0 -125 -37 0 c-21 1 -52 -2 -70 -5 -26
-6 -37 -2 -57 18 -25 25 -26 32 -26 132 0 105 0 106 23 103 21 -3 22 -8 25
-98z m318 89 c4 -7 10 -6 19 1 23 19 68 8 82 -20 8 -15 13 -64 13 -122 0 -98
0 -98 -25 -98 -24 0 -24 1 -27 103 -2 83 -6 102 -18 102 -12 0 -16 -19 -18
-102 -3 -102 -3 -103 -27 -103 -25 0 -25 0 -25 100 0 82 -3 102 -15 107 -9 3
-18 3 -21 0 -3 -3 -8 -51 -11 -106 -5 -90 -8 -101 -24 -101 -18 0 -19 10 -19
124 l0 124 55 1 c30 0 57 -4 61 -10z m335 -15 c33 -36 39 -144 10 -191 -23
-36 -75 -52 -110 -34 -20 11 -21 9 -21 -39 0 -47 -2 -50 -25 -50 l-25 0 0 168
0 169 73 1 c67 2 76 -1 98 -24z m161 -66 l34 -91 33 91 c29 81 36 92 57 92 13
0 24 -3 24 -8 0 -19 -113 -299 -127 -314 -9 -11 -30 -18 -50 -18 -26 0 -33 4
-33 20 0 13 7 20 20 20 11 0 27 12 36 26 17 24 16 29 -29 142 -26 65 -47 121
-47 125 0 4 11 7 24 7 20 0 28 -12 58 -92z m406 70 c-2 -17 -21 -28 -85 -52
-46 -17 -83 -33 -83 -36 0 -3 38 -19 85 -35 73 -25 85 -33 85 -52 l0 -23 -52
21 c-29 12 -80 31 -113 43 -50 19 -60 27 -60 46 0 20 14 29 105 66 58 23 109
42 113 43 5 1 7 -9 5 -21z m487 -2 c44 -44 46 -157 4 -202 -17 -18 -33 -24
-64 -24 -22 0 -46 5 -53 12 -9 9 -12 -1 -12 -45 0 -50 -2 -57 -20 -57 -19 0
-20 7 -20 166 l0 167 30 -6 c16 -4 32 -2 35 3 12 20 75 11 100 -14z m250 -40
c44 -17 61 -29 63 -44 3 -17 -10 -25 -80 -52 -46 -18 -98 -38 -115 -45 -32
-13 -33 -13 -33 8 0 19 12 27 81 52 44 16 82 32 84 35 2 4 -34 19 -81 35 -72
26 -84 33 -84 52 l0 23 53 -21 c28 -12 79 -31 112 -43z m-6497 -324 l3 -82
2729 0 2729 0 3 73 c3 64 5 72 23 72 19 0 20 -7 20 -95 l0 -95 -2775 0 -2775
0 -3 94 c-3 107 1 124 25 119 15 -3 18 -16 21 -86z m2212 -202 c23 -14 3 -24
-43 -22 -23 1 -47 -1 -53 -5 -37 -26 -45 -107 -15 -144 15 -19 28 -24 65 -23
32 1 46 -3 46 -13 0 -9 -15 -13 -49 -13 -73 0 -103 28 -109 103 -4 54 -3 58
31 92 28 28 43 35 74 35 21 0 45 -4 53 -10z m470 -30 c0 -15 7 -20 25 -20 14
0 25 -4 25 -10 0 -5 -11 -10 -25 -10 -25 0 -26 -1 -23 -62 3 -57 5 -63 26 -66
33 -5 27 -22 -8 -22 -38 0 -50 23 -50 94 0 34 -5 56 -12 60 -9 3 -8 8 5 16 9
6 17 18 17 25 0 8 5 15 10 15 6 0 10 -9 10 -20z m490 0 c0 -15 7 -20 25 -20
14 0 25 -4 25 -10 0 -5 -11 -10 -25 -10 -25 0 -26 -1 -23 -62 3 -57 5 -63 26
-66 33 -5 27 -22 -8 -22 -38 0 -50 23 -50 94 0 34 -5 56 -12 60 -9 3 -8 8 5
16 9 6 17 18 17 25 0 8 5 15 10 15 6 0 10 -9 10 -20z m-781 -47 c19 -21 22
-34 18 -66 -7 -53 -31 -77 -78 -77 -47 0 -79 36 -79 89 0 84 83 116 139 54z
m199 10 c7 -10 12 -46 12 -85 0 -54 -3 -68 -15 -68 -12 0 -15 13 -15 59 0 78
-6 91 -41 91 -37 0 -49 -24 -49 -94 0 -43 -3 -56 -15 -56 -12 0 -15 16 -15 85
0 69 3 85 15 85 8 0 15 -5 15 -11 0 -5 10 -3 23 6 25 18 66 12 85 -12z m295
-5 c9 -11 17 -31 17 -44 0 -23 -3 -24 -60 -24 -64 0 -72 -8 -40 -40 17 -17 28
-19 57 -14 28 5 35 4 31 -7 -3 -8 -22 -15 -45 -17 -53 -4 -83 20 -90 75 -5 37
-2 45 26 74 25 25 37 30 59 25 15 -4 35 -16 45 -28z m195 5 c7 -10 12 -46 12
-85 0 -54 -3 -68 -15 -68 -12 0 -15 13 -15 59 0 78 -6 91 -41 91 -37 0 -49
-24 -49 -94 0 -43 -3 -56 -15 -56 -12 0 -15 16 -15 85 0 69 3 85 15 85 8 0 15
-5 15 -11 0 -5 10 -3 23 6 25 18 66 12 85 -12z m-3870 -336 l3 -77 3654 0
3654 0 3 73 c3 64 5 72 23 72 19 0 20 -7 20 -95 l0 -95 -3700 0 -3700 0 -3 89
c-3 101 1 119 25 114 15 -3 18 -16 21 -81z m3242 -297 c0 -100 -2 -120 -15
-120 -12 0 -15 20 -15 120 0 100 3 120 15 120 13 0 15 -20 15 -120z m-70 95
c0 -11 -12 -15 -50 -15 l-50 0 0 -35 c0 -35 0 -35 45 -35 25 0 45 -4 45 -10 0
-5 -20 -10 -45 -10 l-45 0 0 -39 0 -40 47 -3 c26 -2 48 -9 51 -15 3 -10 -14
-13 -62 -13 l-66 0 0 115 0 115 65 0 c51 0 65 -3 65 -15z m1010 -25 c0 -15 7
-20 25 -20 14 0 25 -4 25 -10 0 -5 -11 -10 -25 -10 -25 0 -26 -1 -23 -62 3
-57 5 -63 26 -66 33 -5 27 -22 -8 -22 -38 0 -50 23 -50 94 0 34 -5 56 -12 60
-9 3 -8 8 5 16 9 6 17 18 17 25 0 8 5 15 10 15 6 0 10 -9 10 -20z m-767 -42
c9 -11 17 -31 17 -44 0 -23 -3 -24 -59 -24 -55 0 -59 -2 -54 -20 8 -28 38 -43
75 -35 23 6 29 4 26 -6 -5 -16 -49 -23 -85 -14 -46 11 -64 100 -29 144 27 34
78 34 109 -1z m172 18 c16 -12 24 -12 51 2 30 14 35 14 58 -2 24 -15 26 -22
26 -91 0 -59 -3 -75 -15 -75 -11 0 -15 17 -17 73 -3 70 -4 72 -30 75 -34 4
-48 -25 -48 -99 0 -36 -4 -49 -15 -49 -11 0 -15 17 -17 73 -3 70 -4 72 -30 75
-34 4 -48 -25 -48 -99 0 -37 -4 -49 -15 -49 -12 0 -15 16 -15 85 0 69 3 85 15
85 8 0 15 -5 15 -11 0 -5 10 -3 22 5 28 20 39 20 63 2z m308 -18 c9 -11 17
-31 17 -44 0 -23 -3 -24 -60 -24 -64 0 -72 -8 -40 -40 17 -17 28 -19 57 -14
28 5 35 4 31 -7 -3 -8 -22 -15 -45 -17 -53 -4 -83 20 -90 75 -5 37 -2 45 26
74 25 25 37 30 59 25 15 -4 35 -16 45 -28z m195 5 c7 -10 12 -46 12 -85 0 -54
-3 -68 -15 -68 -12 0 -15 13 -15 59 0 78 -6 91 -41 91 -37 0 -49 -24 -49 -94
0 -43 -3 -56 -15 -56 -12 0 -15 16 -15 85 0 69 3 85 15 85 8 0 15 -5 15 -11 0
-5 10 -3 23 6 25 18 66 12 85 -12z"/>
<path d="M120 2370 c-27 -27 -27 -99 -1 -131 26 -32 86 -32 112 0 23 29 25 98
3 129 -20 29 -85 31 -114 2z"/>
<path d="M6822 2368 c-7 -7 -12 -29 -12 -49 0 -61 48 -90 83 -51 21 23 22 76
1 96 -18 19 -55 21 -72 4z"/>
<path d="M7435 2360 c-4 -12 -1 -27 5 -35 27 -33 78 -5 65 35 -4 14 -15 20
-35 20 -20 0 -31 -6 -35 -20z"/>
<path d="M7427 2224 c-18 -18 -6 -43 23 -49 34 -7 84 17 77 38 -4 13 -88 22
-100 11z"/>
<path d="M7804 2295 c-10 -25 4 -45 30 -45 24 0 46 24 46 49 0 17 -70 13 -76
-4z"/>
<path d="M7983 2364 c-9 -24 10 -49 38 -49 20 0 25 6 27 33 3 30 1 32 -28 32
-19 0 -33 -6 -37 -16z"/>
<path d="M7977 2223 c-15 -15 -6 -43 16 -48 34 -9 77 11 77 35 0 17 -6 20 -43
20 -24 0 -47 -3 -50 -7z"/>
<path d="M372 2328 c-7 -7 -12 -30 -12 -53 0 -44 13 -65 41 -65 29 0 49 29 49
69 0 42 -14 61 -45 61 -12 0 -26 -5 -33 -12z"/>
<path d="M550 2321 c-15 -30 -14 -31 35 -31 30 0 45 4 45 13 0 37 -62 51 -80
18z"/>
<path d="M1207 2334 c-4 -4 -7 -18 -7 -30 0 -17 7 -25 26 -30 31 -8 47 6 42
37 -2 17 -10 25 -28 27 -14 2 -29 0 -33 -4z"/>
<path d="M1189 2174 c-19 -23 15 -47 56 -39 37 7 49 19 42 39 -9 22 -80 21
-98 0z"/>
<path d="M1571 2256 c-16 -19 -3 -46 23 -46 27 0 46 18 46 42 0 22 -51 25 -69
4z"/>
<path d="M1754 2326 c-11 -28 1 -51 25 -51 28 0 47 25 38 49 -8 20 -56 21 -63
2z"/>
<path d="M1733 2174 c-9 -25 26 -47 62 -39 37 7 49 19 42 39 -9 23 -95 22
-104 0z"/>
<path d="M829 1491 c-20 -16 -24 -29 -24 -74 0 -108 85 -135 109 -34 9 38 -10
104 -34 117 -24 13 -24 13 -51 -9z"/>
<path d="M2402 1394 c-29 -20 -28 -40 4 -60 24 -16 27 -16 52 3 15 11 28 32
30 46 3 25 0 27 -30 27 -19 0 -44 -7 -56 -16z"/>
<path d="M4255 1480 c-10 -11 -16 -23 -13 -26 3 -3 32 -4 64 -2 l59 3 -22 23
c-28 27 -64 28 -88 2z"/>
<path d="M5317 1485 c-40 -40 -26 -140 20 -152 36 -9 63 26 63 81 0 70 -45
109 -83 71z"/>
<path d="M6387 1482 c-25 -28 -23 -116 3 -142 11 -11 25 -20 30 -20 6 0 19 9
30 20 27 27 28 119 2 143 -24 22 -45 21 -65 -1z"/>
<path d="M7449 1491 c-20 -16 -24 -29 -24 -74 0 -108 85 -135 109 -34 9 38
-10 104 -34 117 -24 13 -24 13 -51 -9z"/>
<path d="M3592 868 c-7 -7 -12 -29 -12 -49 0 -61 48 -90 83 -51 21 23 22 76 1
96 -18 19 -55 21 -72 4z"/>
<path d="M4090 861 c-15 -30 -14 -31 35 -31 30 0 45 4 45 13 0 37 -62 51 -80
18z"/>
<path d="M3842 268 c-24 -24 -13 -38 28 -38 26 0 40 5 40 13 0 18 -21 37 -40
37 -9 0 -21 -5 -28 -12z"/>
<path d="M4310 261 c-15 -30 -14 -31 35 -31 30 0 45 4 45 13 0 37 -62 51 -80
18z"/>
</g>
</svg>
